<svg width="800" height="128" xmlns="http://www.w3.org/2000/svg">
  <rect width="800" height="128" fill="#f9fafb"/>
  <g stroke="#e5e7eb" stroke-width="2">
    <line x1="0" y1="41.93724186623238" x2="0" y2="86.06275813376763"/>
    <line x1="8" y1="47.37476375073564" x2="8" y2="80.62523624926436"/>
    <line x1="16" y1="31.72403999547484" x2="16" y2="96.27596000452516"/>
    <line x1="24" y1="30.451916791067177" x2="24" y2="97.54808320893282"/>
    <line x1="32" y1="49.33330207863186" x2="32" y2="78.66669792136813"/>
    <line x1="40" y1="50.852799794127776" x2="40" y2="77.14720020587222"/>
    <line x1="48" y1="46.37613027876452" x2="48" y2="81.62386972123548"/>
    <line x1="56" y1="48.146763987571475" x2="56" y2="79.85323601242854"/>
    <line x1="64" y1="40.73499581677255" x2="64" y2="87.26500418322745"/>
    <line x1="72" y1="27.698567291255465" x2="72" y2="100.30143270874453"/>
    <line x1="80" y1="44.19725288862993" x2="80" y2="83.80274711137007"/>
    <line x1="88" y1="46.19741841880573" x2="88" y2="81.80258158119426"/>
    <line x1="96" y1="52.233131941452115" x2="96" y2="75.76686805854789"/>
    <line x1="104" y1="36.42888863476381" x2="104" y2="91.57111136523619"/>
    <line x1="112" y1="50.80737552422375" x2="112" y2="77.19262447577626"/>
    <line x1="120" y1="28.817378481377823" x2="120" y2="99.18262151862217"/>
    <line x1="128" y1="50.09833029238388" x2="128" y2="77.90166970761612"/>
    <line x1="136" y1="33.91826762054131" x2="136" y2="94.08173237945869"/>
    <line x1="144" y1="31.540926183243613" x2="144" y2="96.45907381675639"/>
    <line x1="152" y1="28.761901744851045" x2="152" y2="99.23809825514896"/>
    <line x1="160" y1="28.860206565494522" x2="160" y2="99.13979343450548"/>
    <line x1="168" y1="25.087242485202367" x2="168" y2="102.91275751479763"/>
    <line x1="176" y1="24.66113286095124" x2="176" y2="103.33886713904876"/>
    <line x1="184" y1="39.08985953618685" x2="184" y2="88.91014046381315"/>
    <line x1="192" y1="46.96414116282793" x2="192" y2="81.03585883717207"/>
    <line x1="200" y1="46.50608508341167" x2="200" y2="81.49391491658832"/>
    <line x1="208" y1="44.022009589707864" x2="208" y2="83.97799041029214"/>
    <line x1="216" y1="33.26058464431536" x2="216" y2="94.73941535568464"/>
    <line x1="224" y1="46.321530668790096" x2="224" y2="81.6784693312099"/>
    <line x1="232" y1="39.14438666792033" x2="232" y2="88.85561333207968"/>
    <line x1="240" y1="41.0249701015628" x2="240" y2="86.97502989843721"/>
    <line x1="248" y1="27.770768125339572" x2="248" y2="100.22923187466043"/>
    <line x1="256" y1="51.66252767392012" x2="256" y2="76.33747232607988"/>
    <line x1="264" y1="35.798757285193695" x2="264" y2="92.20124271480631"/>
    <line x1="272" y1="51.88887761586594" x2="272" y2="76.11112238413406"/>
    <line x1="280" y1="33.92361498048124" x2="280" y2="94.07638501951877"/>
    <line x1="288" y1="39.50615515114449" x2="288" y2="88.4938448488555"/>
    <line x1="296" y1="53.70731441160126" x2="296" y2="74.29268558839874"/>
    <line x1="304" y1="49.874149721706814" x2="304" y2="78.12585027829319"/>
    <line x1="312" y1="37.16979760076559" x2="312" y2="90.83020239923441"/>
    <line x1="320" y1="27.758070050690748" x2="320" y2="100.24192994930925"/>
    <line x1="328" y1="47.668536900561435" x2="328" y2="80.33146309943857"/>
    <line x1="336" y1="45.75200097899118" x2="336" y2="82.24799902100882"/>
    <line x1="344" y1="31.90872287610935" x2="344" y2="96.09127712389065"/>
    <line x1="352" y1="28.73835047179668" x2="352" y2="99.26164952820332"/>
    <line x1="360" y1="27.406060198504534" x2="360" y2="100.59393980149547"/>
    <line x1="368" y1="28.406476256864792" x2="368" y2="99.59352374313521"/>
    <line x1="376" y1="42.21368565645244" x2="376" y2="85.78631434354756"/>
    <line x1="384" y1="32.192757299956234" x2="384" y2="95.80724270004376"/>
    <line x1="392" y1="26.012417833250367" x2="392" y2="101.98758216674963"/>
    <line x1="400" y1="39.289109368322535" x2="400" y2="88.71089063167747"/>
    <line x1="408" y1="44.87518261942289" x2="408" y2="83.12481738057713"/>
    <line x1="416" y1="46.144587812504454" x2="416" y2="81.85541218749555"/>
    <line x1="424" y1="49.10482852721742" x2="424" y2="78.89517147278258"/>
    <line x1="432" y1="53.82334463907384" x2="432" y2="74.17665536092616"/>
    <line x1="440" y1="51.10525921123942" x2="440" y2="76.89474078876059"/>
    <line x1="448" y1="42.691486809823594" x2="448" y2="85.3085131901764"/>
    <line x1="456" y1="37.979916789532815" x2="456" y2="90.02008321046719"/>
    <line x1="464" y1="42.35396452339958" x2="464" y2="85.64603547660042"/>
    <line x1="472" y1="53.63431867589574" x2="472" y2="74.36568132410426"/>
    <line x1="480" y1="51.371691008027014" x2="480" y2="76.62830899197299"/>
    <line x1="488" y1="37.890761341662866" x2="488" y2="90.10923865833712"/>
    <line x1="496" y1="49.62776782083069" x2="496" y2="78.37223217916932"/>
    <line x1="504" y1="25.656273483791992" x2="504" y2="102.34372651620801"/>
    <line x1="512" y1="46.649375364669105" x2="512" y2="81.35062463533089"/>
    <line x1="520" y1="35.59006390798729" x2="520" y2="92.40993609201271"/>
    <line x1="528" y1="42.779568726339036" x2="528" y2="85.22043127366098"/>
    <line x1="536" y1="38.62702540399542" x2="536" y2="89.37297459600458"/>
    <line x1="544" y1="28.223881856613666" x2="544" y2="99.77611814338633"/>
    <line x1="552" y1="24.737072358317143" x2="552" y2="103.26292764168286"/>
    <line x1="560" y1="42.242653821360584" x2="560" y2="85.75734617863941"/>
    <line x1="568" y1="46.131211029823575" x2="568" y2="81.86878897017642"/>
    <line x1="576" y1="42.632003277008224" x2="576" y2="85.36799672299178"/>
    <line x1="584" y1="44.2999647583162" x2="584" y2="83.70003524168379"/>
    <line x1="592" y1="51.12288319189743" x2="592" y2="76.87711680810256"/>
    <line x1="600" y1="52.11572902316105" x2="600" y2="75.88427097683895"/>
    <line x1="608" y1="40.430870955918024" x2="608" y2="87.56912904408198"/>
    <line x1="616" y1="44.241525686218054" x2="616" y2="83.75847431378196"/>
    <line x1="624" y1="40.44104602882599" x2="624" y2="87.55895397117402"/>
    <line x1="632" y1="40.63922193984277" x2="632" y2="87.36077806015723"/>
    <line x1="640" y1="32.54960663149761" x2="640" y2="95.45039336850238"/>
    <line x1="648" y1="51.00408031330323" x2="648" y2="76.99591968669678"/>
    <line x1="656" y1="28.502043252936524" x2="656" y2="99.49795674706348"/>
    <line x1="664" y1="24.461728926162458" x2="664" y2="103.53827107383754"/>
    <line x1="672" y1="31.240366083426366" x2="672" y2="96.75963391657363"/>
    <line x1="680" y1="37.902698577433355" x2="680" y2="90.09730142256664"/>
    <line x1="688" y1="44.52473506389525" x2="688" y2="83.47526493610475"/>
    <line x1="696" y1="48.01515871407902" x2="696" y2="79.98484128592098"/>
    <line x1="704" y1="28.976296263037902" x2="704" y2="99.02370373696209"/>
    <line x1="712" y1="42.69026354377536" x2="712" y2="85.30973645622464"/>
    <line x1="720" y1="44.69057829935338" x2="720" y2="83.30942170064662"/>
    <line x1="728" y1="28.959168512924023" x2="728" y2="99.04083148707598"/>
    <line x1="736" y1="24.355612996573548" x2="736" y2="103.64438700342646"/>
    <line x1="744" y1="45.33065565526691" x2="744" y2="82.66934434473309"/>
    <line x1="752" y1="47.575199192371144" x2="752" y2="80.42480080762886"/>
    <line x1="760" y1="31.01408482556677" x2="760" y2="96.98591517443323"/>
    <line x1="768" y1="32.75637073498915" x2="768" y2="95.24362926501087"/>
    <line x1="776" y1="38.74419969180179" x2="776" y2="89.25580030819822"/>
    <line x1="784" y1="32.235327394498626" x2="784" y2="95.76467260550137"/>
    <line x1="792" y1="34.1457611054894" x2="792" y2="93.85423889451062"/>
  </g>
</svg>