<svg width="32" height="32" viewBox="0 0 32 32" fill="none" xmlns="http://www.w3.org/2000/svg">
  <rect width="32" height="32" rx="8" fill="#2563EB"/>
  <path d="M16 7C16 6.44772 15.5523 6 15 6C14.4477 6 14 6.44772 14 7V25C14 25.5523 14.4477 26 15 26C15.5523 26 16 25.5523 16 25V7Z" fill="white"/>
  <path d="M18 10C18 9.44772 17.5523 9 17 9C16.4477 9 16 9.44772 16 10V22C16 22.5523 16.4477 23 17 23C17.5523 23 18 22.5523 18 22V10Z" fill="white"/>
  <circle cx="16" cy="8" r="3" fill="white"/>
  <path d="M11 12V20C11 21.1046 11.8954 22 13 22H19C20.1046 22 21 21.1046 21 20V12C21 10.8954 20.1046 10 19 10H13C11.8954 10 11 10.8954 11 12Z" stroke="white" stroke-width="2"/>
</svg>